<svg width="48" height="48" viewBox="0 0 48 48" fill="none" xmlns="http://www.w3.org/2000/svg">
<rect width="48" height="48" rx="14" fill="#713474" fill-opacity="0.15"/>
<path d="M26.6667 10.6666H21.3334C16.9611 10.6666 14.775 10.6666 13.2253 11.7517C12.652 12.1532 12.1533 12.6518 11.7518 13.2252C10.6667 14.7748 10.6667 16.961 10.6667 21.3333C10.6667 25.7056 10.6667 27.8917 11.7518 29.4414C12.1533 30.0148 12.652 30.5134 13.2253 30.9149C14.775 32 16.9611 32 21.3334 32H26.6667C31.039 32 33.2251 32 34.7749 30.9149C35.3482 30.5134 35.8469 30.0148 36.2483 29.4414C37.3334 27.8917 37.3334 25.7056 37.3334 21.3333C37.3334 16.961 37.3334 14.7748 36.2483 13.2252C35.8469 12.6518 35.3482 12.1532 34.7749 11.7517C33.2251 10.6666 31.039 10.6666 26.6667 10.6666Z" stroke="#212529" stroke-width="1.8" stroke-linecap="round"/>
<path d="M27.3334 37.3333L26.9127 36.7748C25.9645 35.5159 25.7293 33.5925 26.3291 32M20.6667 37.3333L21.0874 36.7748C22.0357 35.5159 22.2709 33.5925 21.671 32" stroke="#212529" stroke-width="1.8" stroke-linecap="round"/>
<path d="M17.3333 37.3334H30.6666" stroke="#212529" stroke-width="1.8" stroke-linecap="round"/>
<path d="M18.6667 26.6667C21.118 23.2061 26.8251 23.0173 29.3334 26.6667M26.6667 18.6667C26.6667 20.1394 25.4729 21.3333 24.0001 21.3333C22.5273 21.3333 21.3334 20.1394 21.3334 18.6667C21.3334 17.1939 22.5273 16 24.0001 16C25.4729 16 26.6667 17.1939 26.6667 18.6667Z" stroke="#212529" stroke-width="1.8" stroke-linecap="round"/>
</svg>
