<svg width="40" height="40" viewBox="0 0 40 40" fill="none" xmlns="http://www.w3.org/2000/svg">
<path d="M34.9032 21.7016C35.2442 18.7147 34.6799 15.6942 33.2833 13.032C31.8868 10.3697 29.7225 8.18851 27.0712 6.7713C24.4198 5.35409 21.4038 4.76626 18.4144 5.08406C15.4249 5.40186 12.5999 6.61062 10.3057 8.55356C8.01162 10.4965 6.35426 13.084 5.54863 15.9803C4.743 18.8767 4.82627 21.9483 5.78765 24.7968C6.74902 27.6452 8.54414 30.1391 10.9402 31.9549C13.3362 33.7707 16.2225 34.8246 19.2248 34.98" stroke="#0085CA" stroke-width="3" stroke-linecap="round" stroke-linejoin="round"/>
<path d="M20 11.6666V20L25 25" stroke="#0085CA" stroke-width="3" stroke-linecap="round" stroke-linejoin="round"/>
<path d="M25 31.6667L28.3333 35L35 28.3334" stroke="#0085CA" stroke-width="3" stroke-linecap="round" stroke-linejoin="round"/>
</svg>
