<svg width="48" height="48" viewBox="0 0 48 48" fill="none" xmlns="http://www.w3.org/2000/svg">
<rect width="48" height="48" rx="14" fill="#713474" fill-opacity="0.15"/>
<path d="M35.9225 25.3613C36.1954 22.9718 35.7439 20.5554 34.6267 18.4256C33.5094 16.2958 31.778 14.5508 29.6569 13.417C27.5359 12.2833 25.1231 11.813 22.7315 12.0672C20.3399 12.3215 18.0799 13.2885 16.2446 14.8428C14.4093 16.3972 13.0834 18.4672 12.4389 20.7843C11.7944 23.1014 11.861 25.5587 12.6301 27.8374C13.3992 30.1162 14.8353 32.1113 16.7521 33.5639C18.6689 35.0165 20.978 35.8597 23.3799 35.984" stroke="#212529" stroke-width="2" stroke-linecap="round" stroke-linejoin="round"/>
<path d="M24 17.3334V24L28 28" stroke="#212529" stroke-width="2" stroke-linecap="round" stroke-linejoin="round"/>
<path d="M28 33.3333L30.6667 36L36 30.6666" stroke="#212529" stroke-width="2" stroke-linecap="round" stroke-linejoin="round"/>
</svg>
