<svg width="205" height="72" viewBox="0 0 205 72" fill="none" xmlns="http://www.w3.org/2000/svg">
<rect width="205" height="72" rx="16" fill="white"/>
<rect x="16" y="16" width="40" height="40" rx="20" fill="#0091CE" fill-opacity="0.15"/>
<path d="M39.3335 36.8334L43.686 39.7351C43.7487 39.7768 43.8216 39.8008 43.8969 39.8044C43.9722 39.808 44.0471 39.7911 44.1135 39.7555C44.1799 39.7199 44.2355 39.667 44.2742 39.6024C44.313 39.5377 44.3335 39.4638 44.3335 39.3884V32.5584C44.3335 32.4851 44.3142 32.4131 44.2775 32.3496C44.2408 32.2861 44.188 32.2335 44.1244 32.197C44.0608 32.1605 43.9887 32.1414 43.9154 32.1416C43.8421 32.1419 43.7702 32.1614 43.7068 32.1984L39.3335 34.7501" stroke="#0091CE" stroke-width="1.66667" stroke-linecap="round" stroke-linejoin="round"/>
<path d="M37.6665 31H29.3332C28.4127 31 27.6665 31.7462 27.6665 32.6667V39.3333C27.6665 40.2538 28.4127 41 29.3332 41H37.6665C38.587 41 39.3332 40.2538 39.3332 39.3333V32.6667C39.3332 31.7462 38.587 31 37.6665 31Z" stroke="#0091CE" stroke-width="1.66667" stroke-linecap="round" stroke-linejoin="round"/>
<path d="M64.7585 31.75V23.0227H70.6392V24.544H66.6037V26.6236H70.3366V28.1449H66.6037V30.2287H70.6562V31.75H64.7585ZM72.0721 25.2045H73.8874V32.0739C73.8874 32.5795 73.788 32.9886 73.5891 33.3011C73.3903 33.6136 73.1048 33.8423 72.7326 33.9872C72.3633 34.1321 71.9215 34.2045 71.4073 34.2045C71.3448 34.2045 71.2852 34.2031 71.2283 34.2003C71.1687 34.2003 71.1062 34.1989 71.0408 34.196V32.777C71.0891 32.7798 71.1317 32.7812 71.1687 32.7812C71.2028 32.7841 71.2397 32.7855 71.2795 32.7855C71.5721 32.7855 71.7766 32.723 71.8931 32.598C72.0124 32.4759 72.0721 32.2912 72.0721 32.044V25.2045ZM72.9755 24.3608C72.7085 24.3608 72.4783 24.2713 72.2852 24.0923C72.092 23.9105 71.9954 23.6932 71.9954 23.4403C71.9954 23.1903 72.092 22.9759 72.2852 22.7969C72.4783 22.6151 72.7085 22.5241 72.9755 22.5241C73.2482 22.5241 73.4798 22.6151 73.6701 22.7969C73.8633 22.9759 73.9599 23.1903 73.9599 23.4403C73.9599 23.6932 73.8633 23.9105 73.6701 24.0923C73.4798 24.2713 73.2482 24.3608 72.9755 24.3608ZM78.3246 31.8778C77.6513 31.8778 77.0717 31.7415 76.5859 31.4688C76.103 31.1932 75.7308 30.804 75.4695 30.3011C75.2081 29.7955 75.0774 29.1974 75.0774 28.5071C75.0774 27.8338 75.2081 27.2429 75.4695 26.7344C75.7308 26.2259 76.0987 25.8295 76.5732 25.5455C77.0504 25.2614 77.6101 25.1193 78.2521 25.1193C78.6839 25.1193 79.0859 25.1889 79.4581 25.3281C79.8331 25.4645 80.1598 25.6705 80.4382 25.946C80.7195 26.2216 80.9382 26.5682 81.0945 26.9858C81.2507 27.4006 81.3288 27.8864 81.3288 28.4432V28.9418H75.8018V27.8168H79.62C79.62 27.5554 79.5632 27.3239 79.4496 27.1222C79.3359 26.9205 79.1783 26.7628 78.9766 26.6491C78.7777 26.5327 78.5462 26.4744 78.282 26.4744C78.0064 26.4744 77.7621 26.5384 77.549 26.6662C77.3388 26.7912 77.174 26.9602 77.0547 27.1733C76.9354 27.3835 76.8743 27.6179 76.8714 27.8764V28.946C76.8714 29.2699 76.9311 29.5497 77.0504 29.7855C77.1726 30.0213 77.3445 30.2031 77.5661 30.331C77.7876 30.4588 78.0504 30.5227 78.3544 30.5227C78.5561 30.5227 78.7408 30.4943 78.9084 30.4375C79.076 30.3807 79.2195 30.2955 79.3388 30.1818C79.4581 30.0682 79.549 29.929 79.6115 29.7642L81.2905 29.875C81.2053 30.2784 81.0305 30.6307 80.7663 30.9318C80.505 31.2301 80.1669 31.4631 79.7521 31.6307C79.3402 31.7955 78.8643 31.8778 78.3246 31.8778ZM85.4709 31.8778C84.8004 31.8778 84.2237 31.7358 83.7408 31.4517C83.2607 31.1648 82.8913 30.767 82.6328 30.2585C82.3771 29.75 82.2493 29.1648 82.2493 28.5028C82.2493 27.8324 82.3786 27.2443 82.6371 26.7386C82.8984 26.2301 83.2692 25.8338 83.7493 25.5497C84.2294 25.2628 84.8004 25.1193 85.4624 25.1193C86.0334 25.1193 86.5334 25.223 86.9624 25.4304C87.3913 25.6378 87.7308 25.929 87.9808 26.304C88.2308 26.679 88.3686 27.1193 88.3942 27.625H86.6811C86.6328 27.2983 86.505 27.0355 86.2976 26.8366C86.093 26.6349 85.8246 26.5341 85.4922 26.5341C85.2109 26.5341 84.9652 26.6108 84.755 26.7642C84.5476 26.9148 84.3857 27.1349 84.2692 27.4247C84.1527 27.7145 84.0945 28.0653 84.0945 28.4773C84.0945 28.8949 84.1513 29.25 84.2649 29.5426C84.3814 29.8352 84.5447 30.0582 84.755 30.2116C84.9652 30.3651 85.2109 30.4418 85.4922 30.4418C85.6996 30.4418 85.8857 30.3991 86.0504 30.3139C86.218 30.2287 86.3558 30.1051 86.4638 29.9432C86.5746 29.7784 86.647 29.581 86.6811 29.3509H88.3942C88.3658 29.8509 88.2294 30.2912 87.9851 30.6719C87.7436 31.0497 87.4098 31.3452 86.9837 31.5582C86.5575 31.7713 86.0533 31.8778 85.4709 31.8778ZM93.7539 28.9631V25.2045H95.5692V31.75H93.8263V30.5611H93.7582C93.6104 30.9446 93.3647 31.2528 93.021 31.4858C92.68 31.7187 92.2638 31.8352 91.7724 31.8352C91.3349 31.8352 90.9499 31.7358 90.6175 31.5369C90.2852 31.3381 90.0252 31.0554 89.8377 30.6889C89.6531 30.3224 89.5593 29.8835 89.5565 29.3722V25.2045H91.3718V29.0483C91.3746 29.4347 91.4783 29.7401 91.6829 29.9645C91.8874 30.1889 92.1616 30.3011 92.5053 30.3011C92.7241 30.3011 92.9286 30.2514 93.119 30.152C93.3093 30.0497 93.4627 29.8991 93.5792 29.7003C93.6985 29.5014 93.7567 29.2557 93.7539 28.9631ZM100.503 25.2045V26.5682H96.5611V25.2045H100.503ZM97.456 23.6364H99.2713V29.7386C99.2713 29.9062 99.2969 30.0369 99.348 30.1307C99.3991 30.2216 99.4702 30.2855 99.5611 30.3224C99.6548 30.3594 99.7628 30.3778 99.8849 30.3778C99.9702 30.3778 100.055 30.3707 100.141 30.3565C100.226 30.3395 100.291 30.3267 100.337 30.3182L100.622 31.669C100.531 31.6974 100.403 31.7301 100.239 31.767C100.074 31.8068 99.8736 31.831 99.6378 31.8395C99.2003 31.8565 98.8168 31.7983 98.4872 31.6648C98.1605 31.5312 97.9063 31.3239 97.7244 31.0426C97.5426 30.7614 97.4531 30.4062 97.456 29.9773V23.6364ZM101.685 31.75V25.2045H103.501V31.75H101.685ZM102.597 24.3608C102.327 24.3608 102.096 24.2713 101.903 24.0923C101.712 23.9105 101.617 23.6932 101.617 23.4403C101.617 23.1903 101.712 22.9759 101.903 22.7969C102.096 22.6151 102.327 22.5241 102.597 22.5241C102.867 22.5241 103.097 22.6151 103.288 22.7969C103.481 22.9759 103.577 23.1903 103.577 23.4403C103.577 23.6932 103.481 23.9105 103.288 24.0923C103.097 24.2713 102.867 24.3608 102.597 24.3608ZM111.057 25.2045L108.769 31.75H106.723L104.435 25.2045H106.353L107.712 29.8878H107.78L109.135 25.2045H111.057ZM114.733 31.8778C114.071 31.8778 113.498 31.7372 113.015 31.456C112.535 31.1719 112.164 30.777 111.903 30.2713C111.642 29.7628 111.511 29.1733 111.511 28.5028C111.511 27.8267 111.642 27.2358 111.903 26.7301C112.164 26.2216 112.535 25.8267 113.015 25.5455C113.498 25.2614 114.071 25.1193 114.733 25.1193C115.395 25.1193 115.966 25.2614 116.446 25.5455C116.929 25.8267 117.301 26.2216 117.562 26.7301C117.824 27.2358 117.954 27.8267 117.954 28.5028C117.954 29.1733 117.824 29.7628 117.562 30.2713C117.301 30.777 116.929 31.1719 116.446 31.456C115.966 31.7372 115.395 31.8778 114.733 31.8778ZM114.741 30.4716C115.042 30.4716 115.294 30.3864 115.495 30.2159C115.697 30.0426 115.849 29.8068 115.951 29.5085C116.056 29.2102 116.109 28.8707 116.109 28.4901C116.109 28.1094 116.056 27.7699 115.951 27.4716C115.849 27.1733 115.697 26.9375 115.495 26.7642C115.294 26.5909 115.042 26.5043 114.741 26.5043C114.437 26.5043 114.181 26.5909 113.974 26.7642C113.77 26.9375 113.615 27.1733 113.51 27.4716C113.407 27.7699 113.356 28.1094 113.356 28.4901C113.356 28.8707 113.407 29.2102 113.51 29.5085C113.615 29.8068 113.77 30.0426 113.974 30.2159C114.181 30.3864 114.437 30.4716 114.741 30.4716ZM124.324 31.8565C123.827 31.8565 123.376 31.7287 122.973 31.473C122.572 31.2145 122.254 30.8352 122.018 30.3352C121.786 29.8324 121.669 29.2159 121.669 28.4858C121.669 27.7358 121.79 27.1122 122.031 26.6151C122.273 26.1151 122.594 25.7415 122.994 25.4943C123.398 25.2443 123.839 25.1193 124.32 25.1193C124.686 25.1193 124.991 25.1818 125.236 25.3068C125.483 25.429 125.682 25.5824 125.832 25.767C125.986 25.9489 126.102 26.1278 126.182 26.304H126.237V23.0227H128.048V31.75H126.259V30.7017H126.182C126.097 30.8835 125.976 31.0639 125.82 31.2429C125.666 31.419 125.466 31.5653 125.219 31.6818C124.974 31.7983 124.676 31.8565 124.324 31.8565ZM124.899 30.4119C125.192 30.4119 125.439 30.3324 125.641 30.1733C125.845 30.0114 126.001 29.7855 126.109 29.4957C126.22 29.206 126.276 28.8665 126.276 28.4773C126.276 28.0881 126.222 27.75 126.114 27.4631C126.006 27.1761 125.849 26.9545 125.645 26.7983C125.44 26.642 125.192 26.5639 124.899 26.5639C124.601 26.5639 124.349 26.6449 124.145 26.8068C123.94 26.9687 123.786 27.1932 123.68 27.4801C123.575 27.767 123.523 28.0994 123.523 28.4773C123.523 28.858 123.575 29.1946 123.68 29.4872C123.788 29.777 123.943 30.0043 124.145 30.169C124.349 30.331 124.601 30.4119 124.899 30.4119ZM132.524 31.8778C131.85 31.8778 131.271 31.7415 130.785 31.4688C130.302 31.1932 129.93 30.804 129.669 30.3011C129.407 29.7955 129.277 29.1974 129.277 28.5071C129.277 27.8338 129.407 27.2429 129.669 26.7344C129.93 26.2259 130.298 25.8295 130.772 25.5455C131.25 25.2614 131.809 25.1193 132.451 25.1193C132.883 25.1193 133.285 25.1889 133.657 25.3281C134.032 25.4645 134.359 25.6705 134.637 25.946C134.919 26.2216 135.137 26.5682 135.294 26.9858C135.45 27.4006 135.528 27.8864 135.528 28.4432V28.9418H130.001V27.8168H133.819C133.819 27.5554 133.762 27.3239 133.649 27.1222C133.535 26.9205 133.377 26.7628 133.176 26.6491C132.977 26.5327 132.745 26.4744 132.481 26.4744C132.206 26.4744 131.961 26.5384 131.748 26.6662C131.538 26.7912 131.373 26.9602 131.254 27.1733C131.135 27.3835 131.074 27.6179 131.071 27.8764V28.946C131.071 29.2699 131.13 29.5497 131.25 29.7855C131.372 30.0213 131.544 30.2031 131.765 30.331C131.987 30.4588 132.25 30.5227 132.554 30.5227C132.755 30.5227 132.94 30.4943 133.108 30.4375C133.275 30.3807 133.419 30.2955 133.538 30.1818C133.657 30.0682 133.748 29.929 133.811 29.7642L135.49 29.875C135.404 30.2784 135.23 30.6307 134.966 30.9318C134.704 31.2301 134.366 31.4631 133.951 31.6307C133.539 31.7955 133.064 31.8778 132.524 31.8778ZM144.936 27.071L143.274 27.1733C143.246 27.0312 143.185 26.9034 143.091 26.7898C142.997 26.6733 142.874 26.581 142.72 26.5128C142.57 26.4418 142.389 26.4062 142.179 26.4062C141.898 26.4062 141.661 26.4659 141.467 26.5852C141.274 26.7017 141.178 26.858 141.178 27.054C141.178 27.2102 141.24 27.3423 141.365 27.4503C141.49 27.5582 141.705 27.6449 142.009 27.7102L143.193 27.9489C143.83 28.0795 144.304 28.2898 144.616 28.5795C144.929 28.8693 145.085 29.25 145.085 29.7216C145.085 30.1506 144.959 30.527 144.706 30.8509C144.456 31.1747 144.112 31.4276 143.675 31.6094C143.24 31.7884 142.739 31.8778 142.17 31.8778C141.304 31.8778 140.614 31.6974 140.099 31.3366C139.588 30.973 139.288 30.4787 139.2 29.8537L140.986 29.7599C141.04 30.0241 141.17 30.2259 141.378 30.3651C141.585 30.5014 141.851 30.5696 142.175 30.5696C142.493 30.5696 142.749 30.5085 142.942 30.3864C143.138 30.2614 143.237 30.1009 143.24 29.9048C143.237 29.7401 143.168 29.6051 143.031 29.5C142.895 29.392 142.685 29.3097 142.401 29.2528L141.267 29.027C140.628 28.8991 140.152 28.6776 139.839 28.3622C139.53 28.0469 139.375 27.6449 139.375 27.1562C139.375 26.7358 139.489 26.3736 139.716 26.0696C139.946 25.7656 140.268 25.5312 140.683 25.3665C141.101 25.2017 141.589 25.1193 142.149 25.1193C142.976 25.1193 143.626 25.294 144.101 25.6435C144.578 25.9929 144.857 26.4687 144.936 27.071ZM150.426 28.9631V25.2045H152.241V31.75H150.498V30.5611H150.43C150.282 30.9446 150.037 31.2528 149.693 31.4858C149.352 31.7187 148.936 31.8352 148.444 31.8352C148.007 31.8352 147.622 31.7358 147.289 31.5369C146.957 31.3381 146.697 31.0554 146.51 30.6889C146.325 30.3224 146.231 29.8835 146.228 29.3722V25.2045H148.044V29.0483C148.047 29.4347 148.15 29.7401 148.355 29.9645C148.559 30.1889 148.833 30.3011 149.177 30.3011C149.396 30.3011 149.6 30.2514 149.791 30.152C149.981 30.0497 150.135 29.8991 150.251 29.7003C150.37 29.5014 150.429 29.2557 150.426 28.9631ZM156.651 31.8778C155.98 31.8778 155.403 31.7358 154.92 31.4517C154.44 31.1648 154.071 30.767 153.812 30.2585C153.557 29.75 153.429 29.1648 153.429 28.5028C153.429 27.8324 153.558 27.2443 153.817 26.7386C154.078 26.2301 154.449 25.8338 154.929 25.5497C155.409 25.2628 155.98 25.1193 156.642 25.1193C157.213 25.1193 157.713 25.223 158.142 25.4304C158.571 25.6378 158.911 25.929 159.161 26.304C159.411 26.679 159.548 27.1193 159.574 27.625H157.861C157.813 27.2983 157.685 27.0355 157.477 26.8366C157.273 26.6349 157.004 26.5341 156.672 26.5341C156.391 26.5341 156.145 26.6108 155.935 26.7642C155.727 26.9148 155.565 27.1349 155.449 27.4247C155.332 27.7145 155.274 28.0653 155.274 28.4773C155.274 28.8949 155.331 29.25 155.445 29.5426C155.561 29.8352 155.724 30.0582 155.935 30.2116C156.145 30.3651 156.391 30.4418 156.672 30.4418C156.879 30.4418 157.065 30.3991 157.23 30.3139C157.398 30.2287 157.536 30.1051 157.643 29.9432C157.754 29.7784 157.827 29.581 157.861 29.3509H159.574C159.545 29.8509 159.409 30.2912 159.165 30.6719C158.923 31.0497 158.589 31.3452 158.163 31.5582C157.737 31.7713 157.233 31.8778 156.651 31.8778ZM164.934 28.9631V25.2045H166.749V31.75H165.006V30.5611H164.938C164.79 30.9446 164.544 31.2528 164.201 31.4858C163.86 31.7187 163.444 31.8352 162.952 31.8352C162.515 31.8352 162.13 31.7358 161.797 31.5369C161.465 31.3381 161.205 31.0554 161.017 30.6889C160.833 30.3224 160.739 29.8835 160.736 29.3722V25.2045H162.551V29.0483C162.554 29.4347 162.658 29.7401 162.863 29.9645C163.067 30.1889 163.341 30.3011 163.685 30.3011C163.904 30.3011 164.108 30.2514 164.299 30.152C164.489 30.0497 164.642 29.8991 164.759 29.7003C164.878 29.5014 164.936 29.2557 164.934 28.9631ZM168.201 31.75V25.2045H169.961V26.3466H170.029C170.148 25.9403 170.349 25.6335 170.63 25.4261C170.911 25.2159 171.235 25.1108 171.602 25.1108C171.692 25.1108 171.79 25.1165 171.896 25.1278C172.001 25.1392 172.093 25.1548 172.173 25.1747V26.7855C172.087 26.7599 171.969 26.7372 171.819 26.7173C171.668 26.6974 171.531 26.6875 171.406 26.6875C171.138 26.6875 170.9 26.7457 170.69 26.8622C170.482 26.9759 170.317 27.1349 170.195 27.3395C170.076 27.544 170.016 27.7798 170.016 28.0469V31.75H168.201ZM178.557 27.071L176.895 27.1733C176.867 27.0312 176.806 26.9034 176.712 26.7898C176.618 26.6733 176.495 26.581 176.341 26.5128C176.191 26.4418 176.01 26.4062 175.8 26.4062C175.519 26.4062 175.282 26.4659 175.088 26.5852C174.895 26.7017 174.799 26.858 174.799 27.054C174.799 27.2102 174.861 27.3423 174.986 27.4503C175.111 27.5582 175.326 27.6449 175.63 27.7102L176.814 27.9489C177.451 28.0795 177.925 28.2898 178.238 28.5795C178.55 28.8693 178.706 29.25 178.706 29.7216C178.706 30.1506 178.58 30.527 178.327 30.8509C178.077 31.1747 177.733 31.4276 177.296 31.6094C176.861 31.7884 176.36 31.8778 175.792 31.8778C174.925 31.8778 174.235 31.6974 173.721 31.3366C173.209 30.973 172.909 30.4787 172.821 29.8537L174.607 29.7599C174.661 30.0241 174.792 30.2259 174.999 30.3651C175.206 30.5014 175.472 30.5696 175.796 30.5696C176.114 30.5696 176.37 30.5085 176.563 30.3864C176.759 30.2614 176.858 30.1009 176.861 29.9048C176.858 29.7401 176.789 29.6051 176.652 29.5C176.516 29.392 176.306 29.3097 176.022 29.2528L174.888 29.027C174.249 28.8991 173.773 28.6776 173.461 28.3622C173.151 28.0469 172.996 27.6449 172.996 27.1562C172.996 26.7358 173.11 26.3736 173.337 26.0696C173.567 25.7656 173.89 25.5312 174.304 25.3665C174.722 25.2017 175.211 25.1193 175.77 25.1193C176.597 25.1193 177.248 25.294 177.722 25.6435C178.199 25.9929 178.478 26.4687 178.557 27.071ZM181.716 31.8736C181.298 31.8736 180.926 31.8011 180.599 31.6562C180.273 31.5085 180.014 31.2912 179.824 31.0043C179.636 30.7145 179.543 30.3537 179.543 29.9219C179.543 29.5582 179.609 29.2528 179.743 29.0057C179.876 28.7585 180.058 28.5597 180.288 28.4091C180.518 28.2585 180.78 28.1449 181.072 28.0682C181.368 27.9915 181.678 27.9375 182.001 27.9062C182.382 27.8665 182.689 27.8295 182.922 27.7955C183.155 27.7585 183.324 27.7045 183.429 27.6335C183.534 27.5625 183.587 27.4574 183.587 27.3182V27.2926C183.587 27.0227 183.501 26.8139 183.331 26.6662C183.163 26.5185 182.925 26.4446 182.615 26.4446C182.288 26.4446 182.028 26.517 181.835 26.6619C181.642 26.804 181.514 26.983 181.452 27.1989L179.773 27.0625C179.858 26.6648 180.026 26.321 180.276 26.0312C180.526 25.7386 180.848 25.5142 181.243 25.358C181.641 25.1989 182.101 25.1193 182.624 25.1193C182.987 25.1193 183.335 25.1619 183.668 25.2472C184.003 25.3324 184.3 25.4645 184.558 25.6435C184.82 25.8224 185.026 26.0526 185.176 26.3338C185.327 26.6122 185.402 26.946 185.402 27.3352V31.75H183.68V30.8423H183.629C183.524 31.0469 183.384 31.2273 183.207 31.3835C183.031 31.5369 182.82 31.6577 182.572 31.7457C182.325 31.831 182.04 31.8736 181.716 31.8736ZM182.236 30.6207C182.503 30.6207 182.739 30.5682 182.943 30.4631C183.148 30.3551 183.308 30.2102 183.425 30.0284C183.541 29.8466 183.599 29.6406 183.599 29.4105V28.7159C183.543 28.7528 183.464 28.7869 183.365 28.8182C183.268 28.8466 183.159 28.8736 183.037 28.8991C182.915 28.9219 182.793 28.9432 182.67 28.9631C182.548 28.9801 182.438 28.9957 182.338 29.0099C182.125 29.0412 181.939 29.0909 181.78 29.1591C181.621 29.2273 181.497 29.3196 181.409 29.4361C181.321 29.5497 181.277 29.6918 181.277 29.8622C181.277 30.1094 181.366 30.2983 181.545 30.429C181.727 30.5568 181.957 30.6207 182.236 30.6207ZM188.626 23.0227V31.75H186.81V23.0227H188.626Z" fill="#212529"/>
<path d="M65.2969 47.75H64.2813L67.2188 39.75H68.2188L71.1563 47.75H70.1406L67.75 41.0156H67.6875L65.2969 47.75ZM65.6719 44.625H69.7656V45.4844H65.6719V44.625ZM74.5107 41.75V42.5312H71.4014V41.75H74.5107ZM72.3076 40.3125H73.2295V46.0312C73.2295 46.2917 73.2673 46.487 73.3428 46.6172C73.4209 46.7448 73.5199 46.8307 73.6396 46.875C73.762 46.9167 73.891 46.9375 74.0264 46.9375C74.1279 46.9375 74.2113 46.9323 74.2764 46.9219C74.3415 46.9089 74.3936 46.8984 74.4326 46.8906L74.6201 47.7187C74.5576 47.7422 74.4704 47.7656 74.3584 47.7891C74.2464 47.8151 74.1045 47.8281 73.9326 47.8281C73.6722 47.8281 73.417 47.7721 73.167 47.6602C72.9196 47.5482 72.7139 47.3776 72.5498 47.1484C72.3883 46.9193 72.3076 46.6302 72.3076 46.2812V40.3125ZM78.3486 47.875C77.7705 47.875 77.2718 47.7474 76.8525 47.4922C76.4359 47.2344 76.1143 46.875 75.8877 46.4141C75.6637 45.9505 75.5518 45.4115 75.5518 44.7969C75.5518 44.1823 75.6637 43.6406 75.8877 43.1719C76.1143 42.7005 76.4294 42.3333 76.833 42.0703C77.2393 41.8047 77.7132 41.6719 78.2549 41.6719C78.5674 41.6719 78.876 41.724 79.1807 41.8281C79.4854 41.9323 79.7627 42.1016 80.0127 42.3359C80.2627 42.5677 80.4619 42.875 80.6104 43.2578C80.7588 43.6406 80.833 44.112 80.833 44.6719V45.0625H76.208V44.2656H79.8955C79.8955 43.9271 79.8278 43.625 79.6924 43.3594C79.5596 43.0937 79.3695 42.8841 79.1221 42.7305C78.8773 42.5768 78.5882 42.5 78.2549 42.5C77.8877 42.5 77.57 42.5911 77.3018 42.7734C77.0361 42.9531 76.8317 43.1875 76.6885 43.4766C76.5452 43.7656 76.4736 44.0755 76.4736 44.4062V44.9375C76.4736 45.3906 76.5518 45.7747 76.708 46.0898C76.8669 46.4023 77.0869 46.6406 77.3682 46.8047C77.6494 46.9661 77.9762 47.0469 78.3486 47.0469C78.5908 47.0469 78.8096 47.013 79.0049 46.9453C79.2028 46.875 79.3734 46.7708 79.5166 46.6328C79.6598 46.4922 79.7705 46.3177 79.8486 46.1094L80.7393 46.3594C80.6455 46.6615 80.488 46.9271 80.2666 47.1562C80.0452 47.3828 79.7718 47.5599 79.4463 47.6875C79.1208 47.8125 78.7549 47.875 78.3486 47.875ZM83.1572 44.1406V47.75H82.2354V41.75H83.126V42.6875H83.2041C83.3447 42.3828 83.5583 42.138 83.8447 41.9531C84.1312 41.7656 84.501 41.6719 84.9541 41.6719C85.3604 41.6719 85.7158 41.7552 86.0205 41.9219C86.3252 42.0859 86.5622 42.3359 86.7314 42.6719C86.9007 43.0052 86.9854 43.4271 86.9854 43.9375V47.75H86.0635V44C86.0635 43.5286 85.9411 43.1615 85.6963 42.8984C85.4515 42.6328 85.1156 42.5 84.6885 42.5C84.3942 42.5 84.1312 42.5638 83.8994 42.6914C83.6702 42.819 83.4893 43.0052 83.3564 43.25C83.2236 43.4948 83.1572 43.7917 83.1572 44.1406ZM91.1074 47.875C90.5449 47.875 90.0605 47.7422 89.6543 47.4766C89.248 47.2109 88.9355 46.8451 88.7168 46.3789C88.498 45.9128 88.3887 45.3802 88.3887 44.7812C88.3887 44.1719 88.5007 43.6341 88.7246 43.168C88.9512 42.6992 89.2663 42.3333 89.6699 42.0703C90.0762 41.8047 90.5501 41.6719 91.0918 41.6719C91.5137 41.6719 91.8939 41.75 92.2324 41.9062C92.571 42.0625 92.8483 42.2812 93.0645 42.5625C93.2806 42.8437 93.4147 43.1719 93.4668 43.5469H92.5449C92.4746 43.2734 92.3184 43.0312 92.0762 42.8203C91.8366 42.6068 91.5137 42.5 91.1074 42.5C90.748 42.5 90.4329 42.5937 90.1621 42.7812C89.8939 42.9661 89.6842 43.2279 89.5332 43.5664C89.3848 43.9023 89.3105 44.2969 89.3105 44.75C89.3105 45.2135 89.3835 45.6172 89.5293 45.9609C89.6777 46.3047 89.8861 46.5716 90.1543 46.7617C90.4251 46.9518 90.7428 47.0469 91.1074 47.0469C91.347 47.0469 91.5645 47.0052 91.7598 46.9219C91.9551 46.8385 92.1204 46.7188 92.2559 46.5625C92.3913 46.4062 92.4876 46.2187 92.5449 46H93.4668C93.4147 46.3542 93.2858 46.6732 93.0801 46.957C92.877 47.2383 92.6074 47.4622 92.2715 47.6289C91.9382 47.793 91.5501 47.875 91.1074 47.875ZM94.8145 47.75V41.75H95.7363V47.75H94.8145ZM95.2832 40.75C95.1035 40.75 94.9486 40.6888 94.8184 40.5664C94.6908 40.444 94.627 40.2969 94.627 40.125C94.627 39.9531 94.6908 39.806 94.8184 39.6836C94.9486 39.5612 95.1035 39.5 95.2832 39.5C95.4629 39.5 95.6165 39.5612 95.7441 39.6836C95.8743 39.806 95.9395 39.9531 95.9395 40.125C95.9395 40.2969 95.8743 40.444 95.7441 40.5664C95.6165 40.6888 95.4629 40.75 95.2832 40.75ZM99.8623 47.875C99.3206 47.875 98.8454 47.7461 98.4365 47.4883C98.0303 47.2305 97.7126 46.8698 97.4834 46.4062C97.2568 45.9427 97.1436 45.401 97.1436 44.7812C97.1436 44.1562 97.2568 43.6107 97.4834 43.1445C97.7126 42.6784 98.0303 42.3164 98.4365 42.0586C98.8454 41.8008 99.3206 41.6719 99.8623 41.6719C100.404 41.6719 100.878 41.8008 101.284 42.0586C101.693 42.3164 102.011 42.6784 102.237 43.1445C102.466 43.6107 102.581 44.1562 102.581 44.7812C102.581 45.401 102.466 45.9427 102.237 46.4062C102.011 46.8698 101.693 47.2305 101.284 47.4883C100.878 47.7461 100.404 47.875 99.8623 47.875ZM99.8623 47.0469C100.274 47.0469 100.612 46.9414 100.878 46.7305C101.144 46.5195 101.34 46.2422 101.468 45.8984C101.595 45.5547 101.659 45.1823 101.659 44.7812C101.659 44.3802 101.595 44.0065 101.468 43.6602C101.34 43.3138 101.144 43.0339 100.878 42.8203C100.612 42.6068 100.274 42.5 99.8623 42.5C99.4508 42.5 99.1123 42.6068 98.8467 42.8203C98.5811 43.0339 98.3844 43.3138 98.2568 43.6602C98.1292 44.0065 98.0654 44.3802 98.0654 44.7812C98.0654 45.1823 98.1292 45.5547 98.2568 45.8984C98.3844 46.2422 98.5811 46.5195 98.8467 46.7305C99.1123 46.9414 99.4508 47.0469 99.8623 47.0469ZM99.4404 40.9375L100.394 39.125H101.472L100.253 40.9375H99.4404ZM104.91 44.1406V47.75H103.988V41.75H104.879V42.6875H104.957C105.098 42.3828 105.311 42.138 105.598 41.9531C105.884 41.7656 106.254 41.6719 106.707 41.6719C107.113 41.6719 107.469 41.7552 107.773 41.9219C108.078 42.0859 108.315 42.3359 108.484 42.6719C108.654 43.0052 108.738 43.4271 108.738 43.9375V47.75H107.816V44C107.816 43.5286 107.694 43.1615 107.449 42.8984C107.204 42.6328 106.868 42.5 106.441 42.5C106.147 42.5 105.884 42.5638 105.652 42.6914C105.423 42.819 105.242 43.0052 105.109 43.25C104.977 43.4948 104.91 43.7917 104.91 44.1406ZM115.782 47.875C115.282 47.875 114.841 47.7487 114.458 47.4961C114.075 47.2409 113.776 46.8815 113.56 46.418C113.343 45.9518 113.235 45.401 113.235 44.7656C113.235 44.1354 113.343 43.5885 113.56 43.125C113.776 42.6615 114.076 42.3034 114.462 42.0508C114.847 41.7982 115.293 41.6719 115.798 41.6719C116.188 41.6719 116.497 41.737 116.724 41.8672C116.953 41.9948 117.127 42.1406 117.247 42.3047C117.369 42.4661 117.465 42.599 117.532 42.7031H117.61V39.75H118.532V47.75H117.642V46.8281H117.532C117.465 46.9375 117.368 47.0755 117.243 47.2422C117.118 47.4062 116.94 47.5534 116.708 47.6836C116.476 47.8112 116.168 47.875 115.782 47.875ZM115.907 47.0469C116.277 47.0469 116.59 46.9505 116.845 46.7578C117.1 46.5625 117.294 46.293 117.427 45.9492C117.56 45.6029 117.626 45.2031 117.626 44.75C117.626 44.3021 117.561 43.9102 117.431 43.5742C117.3 43.2357 117.108 42.9727 116.853 42.7852C116.597 42.5951 116.282 42.5 115.907 42.5C115.517 42.5 115.191 42.6003 114.931 42.8008C114.673 42.9987 114.479 43.2682 114.349 43.6094C114.221 43.9479 114.157 44.3281 114.157 44.75C114.157 45.1771 114.222 45.5651 114.353 45.9141C114.485 46.2604 114.681 46.5365 114.938 46.7422C115.199 46.9453 115.522 47.0469 115.907 47.0469ZM120.349 47.75V41.75H121.271V47.75H120.349ZM120.817 40.75C120.638 40.75 120.483 40.6888 120.353 40.5664C120.225 40.444 120.161 40.2969 120.161 40.125C120.161 39.9531 120.225 39.806 120.353 39.6836C120.483 39.5612 120.638 39.5 120.817 39.5C120.997 39.5 121.151 39.5612 121.278 39.6836C121.409 39.806 121.474 39.9531 121.474 40.125C121.474 40.2969 121.409 40.444 121.278 40.5664C121.151 40.6888 120.997 40.75 120.817 40.75ZM125.381 50.125C124.936 50.125 124.553 50.0677 124.232 49.9531C123.912 49.8411 123.645 49.6927 123.432 49.5078C123.221 49.3255 123.053 49.1302 122.928 48.9219L123.662 48.4063C123.745 48.5156 123.851 48.6406 123.979 48.7812C124.106 48.9245 124.281 49.0482 124.502 49.1523C124.726 49.2591 125.019 49.3125 125.381 49.3125C125.865 49.3125 126.265 49.1953 126.58 48.9609C126.895 48.7266 127.053 48.3594 127.053 47.8594V46.6406H126.975C126.907 46.75 126.811 46.8854 126.686 47.0469C126.563 47.2057 126.386 47.3477 126.154 47.4727C125.925 47.5951 125.615 47.6562 125.225 47.6562C124.74 47.6562 124.305 47.5417 123.92 47.3125C123.537 47.0833 123.234 46.75 123.01 46.3125C122.788 45.875 122.678 45.3437 122.678 44.7187C122.678 44.1042 122.786 43.569 123.002 43.1133C123.218 42.6549 123.519 42.3008 123.904 42.0508C124.29 41.7982 124.735 41.6719 125.24 41.6719C125.631 41.6719 125.941 41.737 126.17 41.8672C126.402 41.9948 126.579 42.1406 126.701 42.3047C126.826 42.4661 126.923 42.599 126.99 42.7031H127.084V41.75H127.975V47.9219C127.975 48.4375 127.857 48.8568 127.623 49.1797C127.391 49.5052 127.079 49.7435 126.686 49.8945C126.295 50.0482 125.86 50.125 125.381 50.125ZM125.35 46.8281C125.719 46.8281 126.032 46.7435 126.287 46.5742C126.542 46.4049 126.736 46.1615 126.869 45.8438C127.002 45.526 127.068 45.1458 127.068 44.7031C127.068 44.2708 127.003 43.8893 126.873 43.5586C126.743 43.2279 126.55 42.9687 126.295 42.7812C126.04 42.5937 125.725 42.5 125.35 42.5C124.959 42.5 124.633 42.599 124.373 42.7969C124.115 42.9948 123.921 43.2604 123.791 43.5938C123.663 43.9271 123.6 44.2969 123.6 44.7031C123.6 45.1198 123.665 45.4883 123.795 45.8086C123.928 46.1263 124.123 46.3763 124.381 46.5586C124.641 46.7383 124.964 46.8281 125.35 46.8281ZM129.662 47.75V41.75H130.584V47.75H129.662ZM130.131 40.75C129.951 40.75 129.796 40.6888 129.666 40.5664C129.538 40.444 129.475 40.2969 129.475 40.125C129.475 39.9531 129.538 39.806 129.666 39.6836C129.796 39.5612 129.951 39.5 130.131 39.5C130.311 39.5 130.464 39.5612 130.592 39.6836C130.722 39.806 130.787 39.9531 130.787 40.125C130.787 40.2969 130.722 40.444 130.592 40.5664C130.464 40.6888 130.311 40.75 130.131 40.75ZM134.882 41.75V42.5312H131.772V41.75H134.882ZM132.679 40.3125H133.601V46.0312C133.601 46.2917 133.638 46.487 133.714 46.6172C133.792 46.7448 133.891 46.8307 134.011 46.875C134.133 46.9167 134.262 46.9375 134.397 46.9375C134.499 46.9375 134.582 46.9323 134.647 46.9219C134.713 46.9089 134.765 46.8984 134.804 46.8906L134.991 47.7187C134.929 47.7422 134.841 47.7656 134.729 47.7891C134.618 47.8151 134.476 47.8281 134.304 47.8281C134.043 47.8281 133.788 47.7721 133.538 47.6602C133.291 47.5482 133.085 47.3776 132.921 47.1484C132.759 46.9193 132.679 46.6302 132.679 46.2812V40.3125ZM138.034 47.8906C137.654 47.8906 137.309 47.819 136.999 47.6758C136.689 47.5299 136.443 47.3203 136.261 47.0469C136.078 46.7708 135.987 46.4375 135.987 46.0469C135.987 45.7031 136.055 45.4245 136.19 45.2109C136.326 44.9948 136.507 44.8255 136.733 44.7031C136.96 44.5807 137.21 44.4896 137.483 44.4297C137.759 44.3672 138.037 44.3177 138.315 44.2813C138.68 44.2344 138.976 44.1992 139.202 44.1758C139.431 44.1497 139.598 44.1068 139.702 44.0469C139.809 43.987 139.862 43.8828 139.862 43.7344V43.7031C139.862 43.3177 139.757 43.0182 139.546 42.8047C139.338 42.5911 139.021 42.4844 138.597 42.4844C138.157 42.4844 137.812 42.5807 137.562 42.7734C137.312 42.9661 137.136 43.1719 137.034 43.3906L136.159 43.0781C136.315 42.7135 136.524 42.4297 136.784 42.2266C137.047 42.0208 137.334 41.8776 137.644 41.7969C137.956 41.7135 138.263 41.6719 138.565 41.6719C138.758 41.6719 138.979 41.6953 139.229 41.7422C139.482 41.7865 139.726 41.8789 139.96 42.0195C140.197 42.1602 140.394 42.3724 140.55 42.6562C140.706 42.9401 140.784 43.3203 140.784 43.7969V47.75H139.862V46.9375H139.815C139.753 47.0677 139.649 47.207 139.503 47.3555C139.357 47.5039 139.163 47.6302 138.921 47.7344C138.679 47.8385 138.383 47.8906 138.034 47.8906ZM138.175 47.0625C138.539 47.0625 138.847 46.9909 139.097 46.8477C139.349 46.7044 139.539 46.5195 139.667 46.293C139.797 46.0664 139.862 45.8281 139.862 45.5781V44.7344C139.823 44.7812 139.737 44.8242 139.604 44.8633C139.474 44.8997 139.323 44.9323 139.151 44.9609C138.982 44.987 138.817 45.0104 138.655 45.0312C138.496 45.0495 138.368 45.0651 138.269 45.0781C138.029 45.1094 137.805 45.1602 137.597 45.2305C137.391 45.2982 137.224 45.401 137.097 45.5391C136.972 45.6745 136.909 45.8594 136.909 46.0937C136.909 46.4141 137.028 46.6562 137.265 46.8203C137.504 46.9818 137.808 47.0625 138.175 47.0625ZM143.389 39.75V47.75H142.467V39.75H143.389Z" fill="#495057"/>
</svg>
