<svg width="36" height="36" viewBox="0 0 36 36" fill="none" xmlns="http://www.w3.org/2000/svg">
<path d="M22 3H16C11.0812 3 8.62174 3 6.87837 4.22073C6.23337 4.67235 5.67235 5.23337 5.22073 5.87837C4 7.62174 4 10.0812 4 15C4 19.9188 4 22.3782 5.22073 24.1217C5.67235 24.7667 6.23337 25.3276 6.87837 25.7793C8.62174 27 11.0812 27 16 27H22C26.9188 27 29.3782 27 31.1217 25.7793C31.7667 25.3276 32.3276 24.7667 32.7793 24.1217C34 22.3782 34 19.9188 34 15C34 10.0812 34 7.62174 32.7793 5.87837C32.3276 5.23337 31.7667 4.67235 31.1217 4.22073C29.3782 3 26.9188 3 22 3Z" stroke="#0085CA" stroke-width="2.3" stroke-linecap="round"/>
<path d="M22.75 33L22.2767 32.3717C21.2099 30.9554 20.9454 28.7916 21.6202 27M15.25 33L15.7233 32.3717C16.7901 30.9554 17.0546 28.7916 16.3798 27" stroke="#0085CA" stroke-width="2.3" stroke-linecap="round"/>
<path d="M11.5 33H26.5" stroke="#0085CA" stroke-width="2.3" stroke-linecap="round"/>
<path d="M13 21C15.7577 17.1069 22.1782 16.8945 25 21M22 12C22 13.6569 20.6569 15 19 15C17.3431 15 16 13.6569 16 12C16 10.3431 17.3431 9 19 9C20.6569 9 22 10.3431 22 12Z" stroke="#0085CA" stroke-width="2.3" stroke-linecap="round"/>
</svg>
