<svg width="40" height="40" viewBox="0 0 40 40" fill="none" xmlns="http://www.w3.org/2000/svg">
<path d="M23.3333 3.33337H16.6666C11.2012 3.33337 8.46852 3.33337 6.53144 4.68974C5.81477 5.19154 5.19142 5.81489 4.68962 6.53156C3.33325 8.46864 3.33325 11.2013 3.33325 16.6667C3.33325 22.132 3.33325 24.8647 4.68962 26.8019C5.19142 27.5185 5.81477 28.1419 6.53144 28.6437C8.46852 30 11.2012 30 16.6666 30H23.3333C28.7986 30 31.5313 30 33.4684 28.6437C34.1851 28.1419 34.8084 27.5185 35.3102 26.8019C36.6666 24.8647 36.6666 22.132 36.6666 16.6667C36.6666 11.2013 36.6666 8.46864 35.3102 6.53156C34.8084 5.81489 34.1851 5.19154 33.4684 4.68974C31.5313 3.33337 28.7986 3.33337 23.3333 3.33337Z" stroke="#0085CA" stroke-width="2.8" stroke-linecap="round"/>
<path d="M24.1666 36.6667L23.6408 35.9685C22.4554 34.3948 22.1614 31.9907 22.9113 30M15.8333 36.6667L16.3591 35.9685C17.5444 34.3948 17.8384 31.9907 17.0886 30" stroke="#0085CA" stroke-width="2.8" stroke-linecap="round"/>
<path d="M11.6667 36.6666H28.3334" stroke="#0085CA" stroke-width="2.8" stroke-linecap="round"/>
<path d="M13.3333 23.3333C16.3974 19.0077 23.5313 18.7717 26.6666 23.3333M23.3333 13.3333C23.3333 15.1743 21.8409 16.6667 19.9999 16.6667C18.1589 16.6667 16.6666 15.1743 16.6666 13.3333C16.6666 11.4924 18.1589 10 19.9999 10C21.8409 10 23.3333 11.4924 23.3333 13.3333Z" stroke="#0085CA" stroke-width="2.8" stroke-linecap="round"/>
</svg>
