<svg width="40" height="40" viewBox="0 0 40 40" fill="none" xmlns="http://www.w3.org/2000/svg">
<path fill-rule="evenodd" clip-rule="evenodd" d="M15.4167 15C15.4167 12.4687 17.4687 10.4167 20.0001 10.4167C22.5314 10.4167 24.5834 12.4687 24.5834 15C24.5834 17.5314 22.5314 19.5834 20.0001 19.5834C17.4687 19.5834 15.4167 17.5314 15.4167 15ZM20.0001 12.9167C18.8494 12.9167 17.9167 13.8494 17.9167 15C17.9167 16.1506 18.8494 17.0834 20.0001 17.0834C21.1507 17.0834 22.0834 16.1506 22.0834 15C22.0834 13.8494 21.1507 12.9167 20.0001 12.9167Z" fill="#0085CA"/>
<path fill-rule="evenodd" clip-rule="evenodd" d="M20.0001 20.4167C18.0071 20.4167 16.1411 20.8179 14.7271 21.525C13.3878 22.1947 12.0835 23.351 12.0835 25L12.0832 25.1042C12.0807 25.9547 12.0764 27.387 13.4338 28.3697C14.0638 28.8255 14.895 29.1164 15.9246 29.3017C16.9638 29.4887 18.2955 29.5834 20.0001 29.5834C21.7048 29.5834 23.0365 29.4887 24.0756 29.3017C25.1053 29.1164 25.9365 28.8255 26.5665 28.3697C27.9238 27.387 27.9196 25.9547 27.917 25.1042L27.9168 25C27.9168 23.351 26.6125 22.1947 25.2731 21.525C23.8591 20.8179 21.9931 20.4167 20.0001 20.4167ZM14.5835 25C14.5835 24.808 14.7715 24.2979 15.8451 23.761C16.844 23.2617 18.3111 22.9167 20.0001 22.9167C21.6891 22.9167 23.1563 23.2617 24.1551 23.761C25.2286 24.2979 25.4168 24.808 25.4168 25C25.4168 26.0075 25.3526 26.162 25.1005 26.3445C24.8971 26.4917 24.4783 26.689 23.633 26.8412C22.7971 26.9915 21.6288 27.0834 20.0001 27.0834C18.3715 27.0834 17.2031 26.9915 16.3673 26.8412C15.522 26.689 15.1032 26.4917 14.8997 26.3445C14.6476 26.162 14.5835 26.0075 14.5835 25Z" fill="#0085CA"/>
<path fill-rule="evenodd" clip-rule="evenodd" d="M14.539 3.41854C16.9455 2.59431 18.4375 2.08334 20 2.08334C21.5625 2.08334 23.0545 2.59431 25.461 3.41854L26.6733 3.83356C29.1423 4.67868 31.0477 5.33088 32.4117 5.88499C33.0987 6.16411 33.6893 6.43446 34.165 6.71069C34.6228 6.97651 35.082 7.30808 35.394 7.75258C35.7023 8.19194 35.8618 8.73208 35.962 9.25204C36.0662 9.79261 36.129 10.4411 36.1695 11.1856C36.25 12.664 36.25 14.6894 36.25 17.3163V19.9857C36.25 30.154 28.57 35.0292 24.0028 37.0243L23.9577 37.044C23.3913 37.2915 22.859 37.524 22.2473 37.6807C21.6015 37.846 20.9155 37.9167 20 37.9167C19.0845 37.9167 18.3985 37.846 17.7527 37.6807C17.141 37.524 16.6087 37.2915 16.0424 37.044L15.9972 37.0243C11.43 35.0292 3.75 30.154 3.75 19.9857V17.3165C3.75 14.6896 3.75 12.6639 3.8305 11.1856C3.87103 10.4411 3.93385 9.79261 4.03802 9.25204C4.13822 8.73208 4.29767 8.19194 4.60605 7.75258C4.91803 7.30808 5.37723 6.97651 5.83497 6.71069C6.31062 6.43446 6.9013 6.16411 7.58838 5.88499C8.95233 5.33088 10.8577 4.67868 13.3266 3.83358L14.539 3.41854ZM20 4.58334C18.9038 4.58334 17.8252 4.93608 15.1344 5.85718L14.1797 6.18396C11.6587 7.04691 9.82017 7.67676 8.52932 8.20116C7.885 8.46291 7.41817 8.68226 7.09048 8.87256C6.9287 8.96651 6.81723 9.04404 6.74278 9.10456C6.67967 9.15586 6.6556 9.18493 6.65215 9.18916C6.64893 9.19439 6.62822 9.22901 6.59905 9.31091C6.56573 9.40443 6.52882 9.53849 6.49285 9.72511C6.42007 10.1028 6.3649 10.6217 6.3268 11.3215C6.25047 12.7235 6.25 14.6806 6.25 17.3612V19.9857C6.25 28.6108 12.6998 32.8558 16.998 34.7333C17.6172 35.0038 17.9747 35.1568 18.3727 35.2587C18.7528 35.356 19.2167 35.4167 20 35.4167C20.7833 35.4167 21.2472 35.356 21.6273 35.2587C22.0253 35.1568 22.3828 35.0038 23.002 34.7333C27.3002 32.8558 33.75 28.6108 33.75 19.9857V17.3612C33.75 14.6806 33.7495 12.7235 33.6732 11.3215C33.6352 10.6217 33.58 10.1028 33.5072 9.72511C33.4712 9.53849 33.4343 9.40443 33.401 9.31091C33.3718 9.22896 33.351 9.19434 33.3478 9.18914C33.3443 9.18488 33.3203 9.15583 33.2572 9.10456C33.1828 9.04404 33.0713 8.96651 32.9095 8.87256C32.5818 8.68226 32.115 8.46291 31.4707 8.20116C30.1798 7.67676 28.3413 7.04691 25.8203 6.18396L24.8657 5.85718C22.1748 4.93608 21.0962 4.58334 20 4.58334Z" fill="#0085CA"/>
</svg>
