<svg width="40" height="40" viewBox="0 0 40 40" fill="none" xmlns="http://www.w3.org/2000/svg">
<path d="M35 21.6667V13.3333C35 11.4924 33.5077 10 31.6667 10H8.33333C6.49238 10 5 11.4924 5 13.3333V23.3333C5 25.1743 6.49238 26.6667 8.33333 26.6667H20" stroke="#0085CA" stroke-width="2.4" stroke-linecap="round" stroke-linejoin="round"/>
<path fill-rule="evenodd" clip-rule="evenodd" d="M34.7982 28.1956C35.6212 28.7018 35.5705 29.934 34.7229 30.0301L30.4452 30.515L28.5265 34.3688C28.1464 35.1325 26.9712 34.7586 26.7768 33.8121L24.6847 23.6188C24.5205 22.8188 25.2395 22.3153 25.935 22.7433L34.7982 28.1956Z" stroke="#0085CA" stroke-width="2.4"/>
<path d="M20 18.35L20.0167 18.3315" stroke="#0085CA" stroke-width="2.4" stroke-linecap="round" stroke-linejoin="round"/>
<path d="M26.6667 18.35L26.6834 18.3315" stroke="#0085CA" stroke-width="2.4" stroke-linecap="round" stroke-linejoin="round"/>
<path d="M13.3333 18.35L13.35 18.3315" stroke="#0085CA" stroke-width="2.4" stroke-linecap="round" stroke-linejoin="round"/>
</svg>
