<svg width="24" height="24" viewBox="0 0 24 24" fill="none" xmlns="http://www.w3.org/2000/svg">
<path d="M14.9805 7.01556C14.9805 7.01556 15.4805 7.51556 15.9805 8.51556C15.9805 8.51556 17.5687 6.01556 18.9805 5.51556" stroke="#212529" stroke-width="1.8" stroke-linecap="round" stroke-linejoin="round"/>
<path d="M9.99485 2.02134C7.49638 1.91556 5.56612 2.20338 5.56612 2.20338C4.34727 2.29053 2.01146 2.97385 2.01148 6.96454C2.0115 10.9213 1.98564 15.7993 2.01148 17.7439C2.01148 18.932 2.7471 21.7033 5.29326 21.8518C8.3881 22.0324 13.9627 22.0708 16.5204 21.8518C17.2051 21.8132 19.4846 21.2757 19.7731 18.7956C20.072 16.2263 20.0125 14.4407 20.0125 14.0157" stroke="#212529" stroke-width="1.8" stroke-linecap="round" stroke-linejoin="round"/>
<path d="M22 7.01556C22 9.77698 19.7593 12.0156 16.9952 12.0156C14.2311 12.0156 11.9904 9.77698 11.9904 7.01556C11.9904 4.25414 14.2311 2.01556 16.9952 2.01556C19.7593 2.01556 22 4.25414 22 7.01556Z" stroke="#212529" stroke-width="1.8" stroke-linecap="round"/>
<path d="M6.98047 13.0156H10.9804" stroke="#212529" stroke-width="1.8" stroke-linecap="round"/>
<path d="M6.98047 17.0156H14.9804" stroke="#212529" stroke-width="1.8" stroke-linecap="round"/>
</svg>
