<svg width="36" height="36" viewBox="0 0 36 36" fill="none" xmlns="http://www.w3.org/2000/svg">
<path d="M31.4129 19.5315C31.7198 16.8432 31.2119 14.1248 29.955 11.7288C28.6981 9.33274 26.7502 7.36966 24.364 6.09417C21.9778 4.81868 19.2634 4.28963 16.5729 4.57565C13.8824 4.86167 11.3399 5.94956 9.27517 7.6982C7.21046 9.44685 5.71884 11.7756 4.99377 14.3823C4.2687 16.989 4.34364 19.7535 5.20888 22.3171C6.07412 24.8807 7.68973 27.1252 9.84614 28.7594C12.0026 30.3936 14.6003 31.3421 17.3024 31.482" stroke="#0085CA" stroke-width="2.5" stroke-linecap="round" stroke-linejoin="round"/>
<path d="M18 10.5V18L22.5 22.5" stroke="#0085CA" stroke-width="2.5" stroke-linecap="round" stroke-linejoin="round"/>
<path d="M22.5 28.5L25.5 31.5L31.5 25.5" stroke="#0085CA" stroke-width="2.5" stroke-linecap="round" stroke-linejoin="round"/>
</svg>
