<svg width="20" height="20" viewBox="0 0 20 20" fill="none" xmlns="http://www.w3.org/2000/svg">
  <path d="M5.5 7.5H4V16H5.5V7.5ZM4.75 6.5C5.30228 6.5 5.75 6.05228 5.75 5.5C5.75 4.94772 5.30228 4.5 4.75 4.5C4.19772 4.5 3.75 4.94772 3.75 5.5C3.75 6.05228 4.19772 6.5 4.75 6.5Z" fill="currentColor"/>
  <path d="M8.5 7.5H7V16H8.5V11.5C8.5 10.1193 9.61929 9 11 9C12.3807 9 13.5 10.1193 13.5 11.5V16H15V11.5C15 9.29086 13.2091 7.5 11 7.5C10.1361 7.5 9.33578 7.77248 8.68639 8.23455L8.5 8.36458V7.5Z" fill="currentColor"/>
</svg>
