<svg preserveAspectRatio="none" width="100%" height="100%" overflow="visible" style="display: block;" viewBox="0 0 16 16" fill="none" xmlns="http://www.w3.org/2000/svg">
<g id="SVG">
<path id="Vector" d="M7.33398 1.33362V2.66695" stroke="var(--stroke-0, #0085CA)" stroke-width="1.33333" stroke-linecap="round" stroke-linejoin="round"/>
<path id="Vector_2" d="M3.33398 1.33362V2.66695" stroke="var(--stroke-0, #0085CA)" stroke-width="1.33333" stroke-linecap="round" stroke-linejoin="round"/>
<path id="Vector_3" d="M3.33398 2H2.66732C2.3137 2 1.97456 2.14048 1.72451 2.39052C1.47446 2.64057 1.33398 2.97971 1.33398 3.33333V6C1.33398 7.06087 1.75541 8.07828 2.50556 8.82843C3.2557 9.57857 4.27312 10 5.33398 10C6.39485 10 7.41227 9.57857 8.16241 8.82843C8.91256 8.07828 9.33398 7.06087 9.33398 6V3.33333C9.33398 2.97971 9.19351 2.64057 8.94346 2.39052C8.69341 2.14048 8.35427 2 8.00065 2H7.33398" stroke="var(--stroke-0, #0085CA)" stroke-width="1.33333" stroke-linecap="round" stroke-linejoin="round"/>
<path id="Vector_4" d="M5.33398 10C5.33398 11.0609 5.75541 12.0783 6.50556 12.8284C7.2557 13.5786 8.27312 14 9.33398 14C10.3949 14 11.4123 13.5786 12.1624 12.8284C12.9126 12.0783 13.334 11.0609 13.334 10V8" stroke="var(--stroke-0, #0085CA)" stroke-width="1.33333" stroke-linecap="round" stroke-linejoin="round"/>
<path id="Vector_5" d="M13.3333 8.00026C14.0697 8.00026 14.6667 7.40331 14.6667 6.66693C14.6667 5.93055 14.0697 5.33359 13.3333 5.33359C12.597 5.33359 12 5.93055 12 6.66693C12 7.40331 12.597 8.00026 13.3333 8.00026Z" stroke="var(--stroke-0, #0085CA)" stroke-width="1.33333" stroke-linecap="round" stroke-linejoin="round"/>
</g>
</svg>
