<svg preserveAspectRatio="none" width="100%" height="100%" overflow="visible" style="display: block;" viewBox="0 0 20 20" fill="none" xmlns="http://www.w3.org/2000/svg">
<g id="iconstack.io - (Pencil)">
<path id="Vector" d="M3.33301 16.6669H6.66634L15.4163 7.91694C15.6352 7.69807 15.8088 7.43823 15.9273 7.15227C16.0457 6.8663 16.1067 6.5598 16.1067 6.25027C16.1067 5.94074 16.0457 5.63425 15.9273 5.34828C15.8088 5.06231 15.6352 4.80248 15.4163 4.58361C15.1975 4.36474 14.9376 4.19112 14.6517 4.07267C14.3657 3.95422 14.0592 3.89325 13.7497 3.89325C13.4401 3.89325 13.1336 3.95422 12.8477 4.07267C12.5617 4.19112 12.3019 4.36474 12.083 4.58361L3.33301 13.3336V16.6669Z" stroke="var(--stroke-0, #7C849A)" stroke-width="1.66667" stroke-linecap="round" stroke-linejoin="round"/>
<path id="Vector_2" d="M11.25 5.41667L14.5833 8.75" stroke="var(--stroke-0, #7C849A)" stroke-width="1.66667" stroke-linecap="round" stroke-linejoin="round"/>
</g>
</svg>
