<svg preserveAspectRatio="none" width="100%" height="100%" overflow="visible" style="display: block;" viewBox="0 0 24 24" fill="none" xmlns="http://www.w3.org/2000/svg">
<g id="iconstack.io - (Clock Heart)">
<path id="Vector" d="M20.956 11.107C20.7859 9.40002 20.1314 7.77721 19.0698 6.42975C18.0081 5.08228 16.5835 4.0663 14.9637 3.50147C13.3439 2.93664 11.5965 2.84649 9.92716 3.24166C8.25786 3.63682 6.73625 4.50083 5.5416 5.7319C4.34694 6.96297 3.529 8.50983 3.18413 10.1902C2.83925 11.8707 2.98181 13.6146 3.59501 15.2167C4.20821 16.8188 5.26651 18.2123 6.64523 19.233C8.02396 20.2538 9.66568 20.8592 11.377 20.978" stroke="var(--stroke-0, #212529)" stroke-width="2" stroke-linecap="round" stroke-linejoin="round"/>
<path id="Vector_2" d="M18 22L21.35 18.716C21.5554 18.5167 21.7188 18.2782 21.8306 18.0146C21.9423 17.7511 22.0001 17.4678 22.0006 17.1816C22.0011 16.8953 21.9442 16.6119 21.8333 16.3479C21.7224 16.084 21.5598 15.845 21.355 15.645C20.9371 15.2363 20.3762 15.007 19.7917 15.0059C19.2072 15.0048 18.6454 15.2319 18.226 15.639L18.002 15.859L17.779 15.639C17.3612 15.2306 16.8005 15.0015 16.2162 15.0004C15.632 14.9993 15.0704 15.2262 14.651 15.633C14.4455 15.8323 14.282 16.0707 14.1702 16.3342C14.0583 16.5977 14.0004 16.881 13.9999 17.1672C13.9993 17.4535 14.0561 17.737 14.1669 18.0009C14.2777 18.2648 14.4403 18.5039 14.645 18.704L18 22Z" stroke="var(--stroke-0, #212529)" stroke-width="2" stroke-linecap="round" stroke-linejoin="round"/>
<path id="Vector_3" d="M12 7V12L12.5 12.5" stroke="var(--stroke-0, #212529)" stroke-width="2" stroke-linecap="round" stroke-linejoin="round"/>
</g>
</svg>
