<svg preserveAspectRatio="none" width="100%" height="100%" overflow="visible" style="display: block;" viewBox="0 0 16 16" fill="none" xmlns="http://www.w3.org/2000/svg">
<g id="SVG">
<path id="Vector" d="M13.3327 8.66664C13.3327 12 10.9993 13.6666 8.22602 14.6333C8.08079 14.6825 7.92304 14.6802 7.77935 14.6266C4.99935 13.6666 2.66602 12 2.66602 8.66664V3.99997C2.66602 3.63203 2.96474 3.33331 3.33268 3.33331C4.66602 3.33331 6.33268 2.53331 7.49268 1.51997C7.78446 1.27069 8.21423 1.27069 8.50602 1.51997C9.67268 2.53997 11.3327 3.33331 12.666 3.33331C13.034 3.33331 13.3327 3.63203 13.3327 3.99997V8.66664" stroke="var(--stroke-0, #0091CE)" stroke-width="1.33333" stroke-linecap="round" stroke-linejoin="round"/>
<path id="Vector_2" d="M6 8L7.33333 9.33333L10 6.66667" stroke="var(--stroke-0, #0091CE)" stroke-width="1.33333" stroke-linecap="round" stroke-linejoin="round"/>
</g>
</svg>
