<svg preserveAspectRatio="none" width="100%" height="100%" overflow="visible" style="display: block;" viewBox="0 0 16 16" fill="none" xmlns="http://www.w3.org/2000/svg">
<g id="iconstack.io - (Map Pin House)" clip-path="url(#clip0_0_21)">
<path id="Vector" d="M9.99948 14.667C9.82267 14.667 9.6531 14.5968 9.52807 14.4718C9.40305 14.3467 9.33281 14.1772 9.33281 14.0004V11.3337C9.3328 11.224 9.35986 11.1159 9.41162 11.0192C9.46337 10.9224 9.5382 10.8399 9.62948 10.779L11.6295 9.44569C11.739 9.3726 11.8678 9.33359 11.9995 9.33359C12.1312 9.33359 12.2599 9.3726 12.3695 9.44569L14.3695 10.779C14.4608 10.8399 14.5356 10.9224 14.5873 11.0192C14.6391 11.1159 14.6662 11.224 14.6661 11.3337V14.0004C14.6661 14.1772 14.5959 14.3467 14.4709 14.4718C14.3459 14.5968 14.1763 14.667 13.9995 14.667H9.99948Z" stroke="#212529" stroke-width="1.33333" stroke-linecap="round" stroke-linejoin="round"/>
<path id="Vector_2" d="M11.9995 6.66693C11.9995 5.25244 11.4376 3.89589 10.4374 2.89569C9.43719 1.8955 8.08063 1.33359 6.66615 1.33359C5.25166 1.33359 3.8951 1.8955 2.89491 2.89569C1.89472 3.89589 1.33281 5.25244 1.33281 6.66693C1.33281 9.99559 5.02548 13.4623 6.26548 14.5329C6.38106 14.6196 6.52167 14.6664 6.66615 14.6663" stroke="#212529" stroke-width="1.33333" stroke-linecap="round" stroke-linejoin="round"/>
<path id="Vector_3" d="M12 14.6664V12.6664" stroke="#212529" stroke-width="1.33333" stroke-linecap="round" stroke-linejoin="round"/>
<path id="Vector_4" d="M6.66719 8.66641C7.77176 8.66641 8.66719 7.77098 8.66719 6.66641C8.66719 5.56184 7.77176 4.66641 6.66719 4.66641C5.56262 4.66641 4.66719 5.56184 4.66719 6.66641C4.66719 7.77098 5.56262 8.66641 6.66719 8.66641Z" stroke="#212529" stroke-width="1.33333" stroke-linecap="round" stroke-linejoin="round"/>
</g>
<defs>
<clipPath id="clip0_0_21">
<rect width="16" height="16" fill="white"/>
</clipPath>
</defs>
</svg>
