<svg width="20" height="20" viewBox="0 0 20 20" fill="none" xmlns="http://www.w3.org/2000/svg">
  <path fill-rule="evenodd" clip-rule="evenodd" d="M10 4C8.28267 4 8.0635 4.00725 7.38617 4.03808C6.71033 4.069 6.24483 4.17658 5.8375 4.3335C5.41617 4.49567 5.05883 4.71567 4.7025 5.0725C4.34567 5.42883 4.12567 5.78617 3.96308 6.2075C3.80567 6.61483 3.698 7.08033 3.66758 7.75617C3.63717 8.43358 3.62942 8.65275 3.62942 10.3701C3.62942 12.0874 3.63717 12.3061 3.66808 12.9834C3.699 13.6593 3.80658 14.1248 3.96358 14.5321C4.12575 14.9534 4.34575 15.3108 4.7025 15.6671C5.05883 16.024 5.41617 16.244 5.8375 16.4061C6.24483 16.563 6.71033 16.6706 7.38617 16.7016C8.0635 16.7324 8.28275 16.7396 10 16.7396C11.7174 16.7396 11.9361 16.7324 12.6134 16.7016C13.2893 16.6706 13.7548 16.563 14.1621 16.4061C14.5834 16.244 14.9408 16.024 15.2971 15.6671C15.6539 15.3108 15.8739 14.9534 16.0361 14.5321C16.1931 14.1248 16.3006 13.6593 16.3316 12.9834C16.3624 12.3061 16.3701 12.0874 16.3701 10.3701C16.3701 8.65275 16.3624 8.43358 16.3316 7.75617C16.3006 7.08033 16.1931 6.61483 16.0361 6.2075C15.8739 5.78617 15.6539 5.42883 15.2971 5.0725C14.9408 4.71567 14.5834 4.49567 14.1621 4.3335C13.7548 4.17658 13.2893 4.069 12.6134 4.03808C11.9361 4.00725 11.7174 4 10 4ZM10 5.14583C11.6887 5.14583 11.892 5.15242 12.5618 5.183C13.1799 5.21133 13.5161 5.31508 13.7393 5.40233C14.0338 5.51775 14.2441 5.655 14.4641 5.875C14.6841 6.09508 14.8214 6.30533 14.9368 6.59983C15.0241 6.823 15.1278 7.1595 15.1561 7.7775C15.1867 8.44733 15.1933 8.65058 15.1933 10.3394C15.1933 12.0283 15.1867 12.2315 15.1561 12.9013C15.1278 13.5194 15.0241 13.8556 14.9368 14.079C14.8214 14.3735 14.6841 14.5838 14.4641 14.8038C14.2441 15.0238 14.0338 15.161 13.7393 15.2764C13.5161 15.3638 13.1799 15.4675 12.5618 15.4958C11.892 15.5263 11.6888 15.5329 10 15.5329C8.31125 15.5329 8.108 15.5263 7.43817 15.4958C6.82017 15.4675 6.484 15.3638 6.2605 15.2764C5.966 15.161 5.75575 15.0238 5.53567 14.8038C5.3155 14.5838 5.1785 14.3735 5.0635 14.079C4.97617 13.8556 4.87242 13.5194 4.84408 12.9013C4.81358 12.2315 4.80692 12.0283 4.80692 10.3394C4.80692 8.65058 4.81358 8.44733 4.84408 7.7775C4.87242 7.1595 4.97617 6.823 5.0635 6.59983C5.1785 6.30533 5.3155 6.09508 5.53567 5.875C5.75575 5.655 5.966 5.51775 6.2605 5.40233C6.484 5.31508 6.82017 5.21133 7.43817 5.183C8.108 5.15242 8.31125 5.14583 10 5.14583ZM10 7.10767C8.20433 7.10767 6.74717 8.56483 6.74717 10.3605C6.74717 12.1561 8.20433 13.6133 10 13.6133C11.7957 13.6133 13.2528 12.1561 13.2528 10.3605C13.2528 8.56483 11.7957 7.10767 10 7.10767ZM10 12.4565C8.84392 12.4565 7.904 11.5165 7.904 10.3605C7.904 9.20442 8.84392 8.2645 10 8.2645C11.1561 8.2645 12.096 9.20442 12.096 10.3605C12.096 11.5165 11.1561 12.4565 10 12.4565ZM14.1508 6.97492C14.1508 7.39875 13.806 7.74358 13.3821 7.74358C12.9583 7.74358 12.6135 7.39875 12.6135 6.97492C12.6135 6.551 12.9583 6.20617 13.3821 6.20617C13.806 6.20617 14.1508 6.551 14.1508 6.97492Z" fill="currentColor"/>
</svg>
