<svg preserveAspectRatio="none" width="100%" height="100%" overflow="visible" style="display: block;" viewBox="0 0 173.28 48.5866" fill="none" xmlns="http://www.w3.org/2000/svg">
<g id="Logo">
<path id="Vector" d="M52.0691 5.52992H53.4977V6.80048C53.9168 6.27382 54.3688 5.89858 54.8406 5.66817C55.3168 5.44214 55.8391 5.32803 56.4206 5.32803C57.6868 5.32803 58.5404 5.77131 58.9881 6.65565C59.2294 7.14062 59.3567 7.83186 59.3567 8.73157V14.4656H57.8272V8.83251C57.8272 8.29049 57.7482 7.84941 57.5858 7.51367C57.3225 6.95848 56.8331 6.67979 56.1353 6.67979C55.7798 6.67979 55.488 6.7127 55.2576 6.78731C54.8472 6.9102 54.4851 7.15378 54.1735 7.52244C53.9212 7.8165 53.7588 8.12371 53.6842 8.43313C53.6074 8.74912 53.5723 9.19898 53.5723 9.78489V14.4656H52.0669V5.52772L52.0691 5.52992Z" fill="var(--fill-0, #0085CA)"/>
<path id="Vector_2" d="M63.0785 5.52992V11.4614C63.0785 11.9179 63.1465 12.2931 63.2892 12.5828C63.5437 13.1138 64.0331 13.3793 64.7419 13.3793C65.7623 13.3793 66.4535 12.9119 66.8244 11.9793C67.0241 11.479 67.1272 10.7899 67.1272 9.91655V5.52772H68.6282V14.4656H67.2106L67.2259 13.1467C67.0372 13.4869 66.798 13.7699 66.5128 14.0047C65.9532 14.4744 65.2685 14.707 64.4654 14.707C63.2168 14.707 62.3631 14.2791 61.9111 13.4298C61.6653 12.9734 61.5424 12.3655 61.5424 11.5997V5.52553H63.0807L63.0785 5.52992Z" fill="var(--fill-0, #0085CA)"/>
<path id="Vector_3" d="M76.6022 5.77572C77.1947 6.07197 77.6445 6.45599 77.9539 6.93218C78.2546 7.38203 78.4499 7.90869 78.5486 8.50996C78.6386 8.92471 78.6803 9.57864 78.6803 10.4805H72.1805C72.209 11.3912 72.4197 12.1198 72.8146 12.6706C73.214 13.2214 73.8285 13.4957 74.6601 13.4957C75.4413 13.4957 76.0624 13.2323 76.5276 12.7145C76.7887 12.4116 76.973 12.0627 77.0784 11.6677H78.5552C78.5179 11.9969 78.3862 12.359 78.169 12.7627C77.9474 13.1665 77.7016 13.4957 77.4317 13.7546C76.9818 14.1979 76.4179 14.4985 75.7508 14.6543C75.3953 14.7421 74.9871 14.786 74.5351 14.786C73.4291 14.786 72.4921 14.38 71.7218 13.5747C70.9538 12.7627 70.5698 11.6304 70.5698 10.1711C70.5698 8.71185 70.956 7.57295 71.7306 6.67543C72.5052 5.78011 73.5169 5.33245 74.7655 5.33245C75.3953 5.33245 76.0053 5.48167 76.6 5.78011M77.1376 9.28679C77.0806 8.63504 76.9379 8.11277 76.7185 7.72217C76.3103 7.0024 75.6257 6.64032 74.6755 6.64032C73.993 6.64032 73.4159 6.89048 72.9529 7.38642C72.4899 7.88236 72.2441 8.51654 72.2156 9.28459H77.1398L77.1376 9.28679Z" fill="var(--fill-0, #0085CA)"/>
<path id="Vector_4" d="M81.3269 5.52995L83.7144 12.811L86.2029 5.52995H87.8443L84.4759 14.4678H82.8783L79.5802 5.52995H81.3269Z" fill="var(--fill-0, #0085CA)"/>
<path id="Vector_5" d="M93.9251 9.05854C94.2696 9.01246 94.5 8.86982 94.6163 8.62624C94.6844 8.49238 94.7217 8.29708 94.7217 8.04692C94.7217 7.53123 94.5373 7.15818 94.1709 6.92557C93.8044 6.69735 93.2887 6.58104 92.6129 6.58104C91.8273 6.58104 91.2699 6.79171 90.9451 7.21743C90.7608 7.45443 90.6423 7.80115 90.583 8.26636H89.183C89.2115 7.16038 89.5692 6.39013 90.2583 5.96003C90.9407 5.52773 91.7373 5.31267 92.6414 5.31267C93.6947 5.31267 94.5439 5.51237 95.2023 5.91395C95.8562 6.31553 96.1788 6.93654 96.1788 7.78578V12.9339C96.1788 13.0897 96.2117 13.2148 96.2687 13.3091C96.3368 13.4057 96.475 13.4496 96.6813 13.4496C96.7471 13.4496 96.8217 13.4452 96.9029 13.4364C96.9907 13.4276 97.0763 13.4167 97.175 13.4013V14.5073C96.9358 14.5731 96.7625 14.6148 96.6352 14.6302C96.5167 14.6499 96.3521 14.6587 96.1349 14.6587C95.617 14.6587 95.2461 14.4744 95.0091 14.1057C94.8863 13.9126 94.7985 13.6361 94.748 13.2806C94.4452 13.68 94.0019 14.0267 93.4314 14.3229C92.8608 14.6192 92.2244 14.7662 91.5354 14.7662C90.7081 14.7662 90.0278 14.5139 89.499 14.0113C88.9745 13.511 88.7134 12.879 88.7134 12.1241C88.7134 11.2968 88.9745 10.6561 89.4902 10.1974C90.0081 9.74539 90.6884 9.46012 91.5266 9.35699L93.9207 9.05635L93.9251 9.05854ZM90.7608 13.1182C91.079 13.3684 91.4542 13.4935 91.8887 13.4935C92.4176 13.4935 92.931 13.3684 93.4226 13.1248C94.2587 12.7188 94.6734 12.0583 94.6734 11.1345V9.92534C94.4891 10.0438 94.2565 10.1404 93.969 10.2194C93.6749 10.2962 93.3984 10.3533 93.1198 10.3862L92.2113 10.5003C91.6649 10.5749 91.2567 10.689 90.9846 10.8448C90.515 11.1059 90.2868 11.5251 90.2868 12.0934C90.2868 12.5301 90.4426 12.8702 90.7608 13.1182Z" fill="var(--fill-0, #0085CA)"/>
<path id="Vector_6" d="M52.1148 37.2173V19.7629H55.0267V22.2119C55.6302 21.3561 56.4312 20.6714 57.4274 20.1579C58.4303 19.6269 59.5714 19.3679 60.8463 19.3679C62.2705 19.3679 63.4335 19.6357 64.3376 20.1733C65.2549 20.7109 65.9 21.4636 66.2753 22.4248C67.7916 20.3883 69.7666 19.3679 72.2045 19.3679C74.1093 19.3679 75.573 19.8507 76.5999 20.8141C77.6247 21.7642 78.1382 23.2433 78.1382 25.2358V37.2173H74.9015V26.2233C74.9015 25.0361 74.7939 24.1891 74.5767 23.6734C74.3682 23.1467 73.9952 22.7276 73.4378 22.4094C72.8848 22.0912 72.2331 21.9332 71.4848 21.931C70.1352 21.931 69.0139 22.348 68.1208 23.1643C67.2298 23.9762 66.7844 25.2819 66.7844 27.0769V37.2173H63.5301V25.8788C63.5301 24.5621 63.2645 23.5746 62.7335 22.9185C62.2003 22.2602 61.34 21.931 60.1309 21.931C59.2159 21.931 58.3666 22.1527 57.581 22.5893C56.8108 23.026 56.249 23.669 55.9001 24.5138C55.5468 25.3565 55.3735 26.5722 55.3735 28.161V37.2195H52.1192L52.1148 37.2173Z" fill="var(--fill-0, #0085CA)"/>
<path id="Vector_7" d="M93.3902 35.0646C92.1811 35.9972 91.0203 36.6555 89.8989 37.0396C88.7929 37.4214 87.5992 37.6145 86.3177 37.6145C84.2088 37.6145 82.5894 37.1471 81.4571 36.2167C80.3225 35.2753 79.7564 34.0727 79.7564 32.6178C79.7564 31.7598 79.967 30.9852 80.3884 30.283C80.8185 29.572 81.3802 29.0014 82.0693 28.5735C82.7649 28.1434 83.5527 27.823 84.4173 27.6036C85.0581 27.4478 86.0236 27.3029 87.3073 27.1581C89.9406 26.8728 91.8761 26.5349 93.1159 26.1399C93.1269 25.7339 93.1335 25.4728 93.1335 25.3631C93.1335 24.1583 92.8307 23.3113 92.2118 22.8154C91.3845 22.1483 90.1425 21.8147 88.5055 21.8147C86.976 21.8147 85.8437 22.0605 85.1085 22.552C84.3844 23.0348 83.8468 23.8972 83.5 25.1349L80.3138 24.7399C80.6056 23.5066 81.084 22.5038 81.7467 21.7489C82.4094 20.983 83.3662 20.3949 84.6214 19.9912C85.8722 19.572 87.3271 19.3679 88.9773 19.3679C90.6275 19.3679 91.9507 19.5435 92.9733 19.8946C93.9959 20.2457 94.7486 20.6868 95.2379 21.2244C95.7163 21.7511 96.052 22.4204 96.2473 23.2301C96.3549 23.7326 96.4097 24.6433 96.4097 25.96V29.9011C96.4097 32.6529 96.4756 34.3975 96.6094 35.1304C96.7543 35.8524 97.0286 36.5502 97.4411 37.2173H94.0376C93.7018 36.6029 93.4846 35.8853 93.3902 35.0624M93.1181 28.455C91.9353 28.8939 90.1666 29.2691 87.8055 29.5742C86.4669 29.7497 85.5189 29.9494 84.9659 30.1689C84.4085 30.3861 83.9828 30.7087 83.6778 31.1322C83.3772 31.5491 83.2301 32.0165 83.2301 32.5322C83.2301 33.3222 83.5549 33.9784 84.2045 34.5028C84.8672 35.0273 85.8305 35.2906 87.0967 35.2906C88.3628 35.2906 89.4666 35.0426 90.4431 34.5533C91.4197 34.0486 92.135 33.3661 92.5959 32.4971C92.9426 31.8322 93.1203 30.8469 93.1203 29.5369V28.4528L93.1181 28.455Z" fill="var(--fill-0, #0085CA)"/>
<path id="Vector_8" d="M98.0224 32.01L101.246 31.5447C101.426 32.721 101.926 33.6207 102.747 34.2417C103.574 34.8649 104.737 35.1787 106.216 35.1787C107.695 35.1787 108.821 34.9066 109.543 34.358C110.267 33.7984 110.625 33.1489 110.625 32.4006C110.625 31.7357 110.311 31.2068 109.675 30.8228C109.227 30.5595 108.117 30.2237 106.344 29.8221C103.956 29.2713 102.297 28.8017 101.373 28.4067C100.454 28.003 99.756 27.4478 99.2754 26.7521C98.8058 26.0346 98.571 25.2534 98.571 24.3931C98.571 23.6185 98.7663 22.8988 99.1504 22.2426C99.5454 21.5733 100.083 21.0225 100.759 20.5836C101.266 20.2435 101.948 19.9604 102.817 19.7278C103.699 19.4842 104.641 19.3679 105.641 19.3679C107.142 19.3679 108.466 19.5632 109.598 19.9582C110.741 20.351 111.584 20.8865 112.13 21.5689C112.672 22.2338 113.041 23.1336 113.252 24.2637L110.07 24.6587C109.925 23.7612 109.506 23.0589 108.808 22.5564C108.117 22.0495 107.14 21.7972 105.874 21.7972C104.384 21.7972 103.313 22.0232 102.672 22.4708C102.032 22.9207 101.718 23.4474 101.718 24.0508C101.718 24.4326 101.847 24.775 102.115 25.0866C102.378 25.4026 102.795 25.6659 103.359 25.8744C103.684 25.9841 104.643 26.2387 106.234 26.6336C108.538 27.1866 110.14 27.6475 111.044 28.0117C111.959 28.365 112.674 28.8785 113.197 29.5566C113.715 30.2391 113.971 31.0795 113.971 32.0868C113.971 33.094 113.653 34.0025 113.017 34.8803C112.387 35.7471 111.479 36.4251 110.285 36.9057C109.095 37.3731 107.746 37.6079 106.234 37.6079C103.741 37.6079 101.836 37.1405 100.52 36.1925C99.2206 35.2533 98.3867 33.8533 98.0246 32.0056" fill="var(--fill-0, #0085CA)"/>
<path id="Vector_9" d="M120.55 37.2173L113.243 19.7629H116.675L120.798 30.2171C121.246 31.345 121.656 32.5147 122.027 33.7326C122.316 32.8131 122.72 31.7071 123.236 30.4146L127.508 19.7651H130.855L123.585 37.2195H120.55V37.2173Z" fill="var(--fill-0, #0085CA)"/>
<path id="Vector_10" d="M135.725 16.5306H132.47V13.1248H135.725V16.5306ZM135.725 37.2173H132.47V19.7585H135.725V37.2173Z" fill="var(--fill-0, #0085CA)"/>
<path id="Vector_11" d="M150.969 37.2173V35.0163C149.753 36.7477 147.962 37.6145 145.597 37.6145C144.069 37.6145 142.661 37.2283 141.368 36.4624C140.091 35.6944 139.097 34.6257 138.384 33.2586C137.681 31.8761 137.339 30.2939 137.339 28.5099C137.339 26.7258 137.653 25.1853 138.294 23.7743C138.934 22.3479 139.893 21.2595 141.168 20.5002C142.445 19.7454 143.874 19.3679 145.454 19.3679C146.61 19.3679 147.642 19.5896 148.546 20.0372C149.45 20.4783 150.185 21.0554 150.751 21.7642V13.1182H153.986V37.2173H150.966H150.969ZM140.681 28.5099C140.681 30.7416 141.201 32.4137 142.237 33.5219C143.271 34.6279 144.497 35.1831 145.908 35.1831C147.319 35.1831 148.535 34.6564 149.522 33.6031C150.525 32.5432 151.028 30.9281 151.028 28.7556C151.028 26.3637 150.519 24.6126 149.505 23.4956C148.491 22.3765 147.247 21.8213 145.766 21.8213C144.284 21.8213 143.106 22.3589 142.13 23.4298C141.164 24.505 140.683 26.1991 140.683 28.512" fill="var(--fill-0, #0085CA)"/>
<path id="Vector_12" d="M169.231 35.0646C168.024 35.9972 166.861 36.6555 165.744 37.0396C164.634 37.4214 163.44 37.6145 162.161 37.6145C160.056 37.6145 158.435 37.1471 157.302 36.2167C156.164 35.2753 155.602 34.0727 155.602 32.6178C155.602 31.7598 155.812 30.9852 156.234 30.283C156.664 29.572 157.226 29.0014 157.913 28.5735C158.61 28.1434 159.398 27.823 160.263 27.6036C160.903 27.4478 161.865 27.3029 163.153 27.1581C165.782 26.8728 167.721 26.5349 168.957 26.1399C168.972 25.7339 168.974 25.4728 168.974 25.3631C168.974 24.1583 168.667 23.3113 168.053 22.8154C167.221 22.1483 165.988 21.8147 164.344 21.8147C162.815 21.8147 161.682 22.0605 160.947 22.552C160.223 23.0348 159.688 23.8972 159.341 25.1349L156.155 24.7399C156.444 23.5066 156.921 22.5038 157.583 21.7489C158.246 20.983 159.203 20.3949 160.456 19.9912C161.711 19.572 163.166 19.3679 164.818 19.3679C166.471 19.3679 167.787 19.5435 168.812 19.8946C169.837 20.2457 170.592 20.6868 171.072 21.2244C171.553 21.7511 171.893 22.4204 172.086 23.2301C172.194 23.7326 172.249 24.6433 172.249 25.96V29.9011C172.249 32.6529 172.314 34.3975 172.448 35.1304C172.593 35.8524 172.872 36.5502 173.28 37.2173H169.881C169.541 36.6029 169.323 35.8853 169.229 35.0624M168.961 28.455C167.779 28.8939 166.01 29.2691 163.644 29.5742C162.31 29.7497 161.362 29.9494 160.809 30.1689C160.256 30.3861 159.826 30.7087 159.525 31.1322C159.225 31.5491 159.073 32.0165 159.073 32.5322C159.073 33.3222 159.403 33.9784 160.05 34.5028C160.713 35.0273 161.678 35.2906 162.944 35.2906C164.21 35.2906 165.314 35.0426 166.291 34.5533C167.263 34.0486 167.98 33.3661 168.439 32.4971C168.79 31.8322 168.964 30.8469 168.964 29.5369V28.4528L168.961 28.455Z" fill="var(--fill-0, #0085CA)"/>
<path id="Vector_13" d="M40.4319 8.11714L45.4659 16.8443L36.4842 22.0319C35.9861 20.8864 34.8428 20.0877 33.5152 20.0877H26.7981V13.3728C26.7981 11.5887 25.352 10.136 23.5635 10.136H21.9002C20.1139 10.136 18.6656 11.5909 18.6656 13.3728V20.0877H11.9529C10.6209 20.0877 9.48203 20.8864 8.9839 22.0319L0 16.8443L5.03397 8.11714L17.7067 15.4355V0H27.7636V15.4355L40.4297 8.11714H40.4319Z" fill="var(--fill-0, #0085CA)"/>
<path id="Vector_14" d="M36.487 26.5502L45.4687 31.7356L40.4347 40.4628L27.7643 33.151V48.5866H17.7117V33.151L5.04338 40.4628L0.00502264 31.7356L8.98892 26.5502C9.48924 27.6957 10.6281 28.4945 11.9558 28.4945H18.6728V35.2094C18.6728 36.9935 20.1233 38.444 21.9074 38.444H23.5707C25.3592 38.444 26.8053 36.9935 26.8053 35.2094V28.4945H33.5202C34.8478 28.4945 35.9911 27.6957 36.4892 26.5502" fill="var(--fill-0, #0085CA)"/>
</g>
</svg>
